<?xml version="1.0" encoding="UTF-8" standalone="no"?>
<svg xmlns="http://www.w3.org/2000/svg" width="300" height="90" viewBox="0 0 300 90" version="1.1"><path style="fill:#1c1c1c" d="M 181.45315,7.4604742 A 4.8415829,4.8415829 0 0 0 176.61157,12.302057 A 4.8415829,4.8415829 0 0 0 181.45315,17.14364 A 4.8415829,4.8415829 0 0 0 186.29474,12.302057 A 4.8415829,4.8415829 0 0 0 181.45315,7.4604742 Z M 31.466211,9.8815006 C 28.896859,9.8702561 26.294772,10.232255 23.736227,10.997219 C 12.447602,14.372312 4.7578542,24.770695 4.73656,36.455365 L 4.7353783,80.084214 C 4.7162806,81.434567 5.8056787,82.539526 7.1561691,82.539526 C 8.5066596,82.539526 9.5960589,81.434567 9.5769606,80.084214 L 9.577198,36.509972 C 9.5718886,26.912073 15.850861,18.408085 25.123098,15.635844 C 34.714435,12.768206 44.995417,16.784824 50.102639,25.394895 C 55.209861,34.004967 53.805409,44.952991 46.690247,51.995115 C 39.575084,59.03724 28.613142,60.328589 20.056223,55.132807 C 18.911892,54.415451 17.401901,54.77305 16.700921,55.927485 C 15.999941,57.081918 16.379052,58.586735 17.543351,59.271204 C 27.978134,65.607234 41.419393,64.023789 50.096025,55.436233 C 58.772647,46.848674 60.494834,33.424419 54.266805,22.924818 C 49.401155,14.722 40.642477,9.9216634 31.466211,9.8815006 Z M 147.52566,14.688685 A 2.4210336,2.4210336 0 0 0 145.14128,17.14364 V 19.564432 L 137.87891,26.826806 H 133.03732 A 2.4210336,2.4210336 0 1 0 133.03732,31.668389 H 145.14128 V 72.02066 C 145.14128,75.534397 146.81434,78.430165 149.17116,80.131376 C 151.52799,81.832589 154.42098,82.505007 157.24524,82.505007 A 2.4210336,2.4210336 0 1 0 157.24524,77.663424 C 155.22791,77.663424 153.27932,77.125498 152.00495,76.205627 C 150.73059,75.285765 149.98286,74.149674 149.98286,72.02066 V 31.668389 H 162.08682 A 2.4210336,2.4210336 0 1 0 162.08682,26.826806 H 149.98286 V 17.14364 A 2.4210336,2.4210336 0 0 0 147.52566,14.688685 Z M 110.26864,14.722848 C 108.04919,14.722975 106.19054,16.58152 106.19041,18.800963 A 2.7700092,2.7700092 0 0 0 106.19041,18.801198 V 19.05037 L 98.955702,22.667844 C 96.327715,21.943047 93.612716,21.57341 90.883162,21.570922 A 2.7700092,2.7700092 0 0 0 90.880682,21.570922 C 74.086998,21.570922 60.413582,35.244223 60.413582,52.037909 C 60.413582,60.117208 63.624239,67.868483 69.337173,73.581412 C 75.050104,79.294342 82.801379,82.505007 90.880682,82.505007 C 98.959981,82.505007 106.71114,79.294342 112.42407,73.581412 C 118.137,67.868483 121.34766,60.117208 121.34766,52.037909 A 2.7700092,2.7700092 0 0 0 121.34766,52.027504 C 121.33747,49.309199 120.96327,46.606355 120.23691,43.990428 L 123.86822,36.728175 H 124.11739 A 2.7700092,2.7700092 0 0 0 124.11751,36.728175 C 126.33697,36.728048 128.19561,34.869396 128.19574,32.649946 A 2.7700092,2.7700092 0 0 0 128.19574,32.649825 V 29.880102 C 128.19574,28.799521 127.76531,27.760367 127.0013,26.99631 A 2.7700092,2.7700092 0 0 0 127.0013,26.996189 L 115.9224,15.917285 A 2.7700092,2.7700092 0 0 0 115.92228,15.917285 C 115.15823,15.153283 114.11901,14.722861 113.03849,14.722848 H 110.26876 A 2.7700092,2.7700092 0 0 0 110.26864,14.722848 Z M 110.26876,17.492572 H 113.03849 C 113.38555,17.492579 113.71836,17.630388 113.96378,17.875791 L 125.0428,28.954808 C 125.28819,29.200229 125.42601,29.533044 125.42601,29.880102 V 32.649825 C 125.42597,33.372521 124.84009,33.95841 124.11739,33.958444 H 122.15641 L 117.27014,43.73074 C 118.12635,46.41709 118.56737,49.21843 118.57794,52.037909 C 118.57794,59.383697 115.65983,66.428547 110.46557,71.622793 C 105.27132,76.81706 98.22647,79.73528 90.880682,79.73528 C 83.534897,79.73528 76.48993,76.81706 71.295674,71.622793 C 66.101417,66.428547 63.183305,59.383697 63.183305,52.037909 C 63.183305,36.741096 75.583876,24.340647 90.880682,24.340647 C 93.70954,24.34322 96.521276,24.77907 99.218109,25.633193 L 108.96014,20.762179 V 18.801198 C 108.96018,18.078501 109.54606,17.492617 110.26876,17.492572 Z M 258.88206,19.530268 A 2.4210336,2.4210336 0 0 0 256.4977,21.985223 V 28.852803 A 2.4210336,2.4210336 0 0 0 256.4977,29.636363 V 80.084214 A 2.4210336,2.4210336 0 1 0 261.33929,80.084214 V 38.930763 L 268.67695,31.593096 C 273.03383,31.547664 276.5619,31.537304 279.32734,31.773117 C 283.92205,32.164912 286.01831,33.012726 287.4831,35.153596 C 288.94791,37.294465 289.86805,41.522522 290.20225,48.76334 C 290.53645,56.004139 290.38877,66.147119 290.38877,80.084214 A 2.4210336,2.4210336 0 1 0 295.23036,80.084214 C 295.23036,66.182208 295.38528,56.051072 295.03862,48.540167 C 294.69197,41.02928 293.94782,36.028076 291.47883,32.419566 C 289.00985,28.811058 284.90286,27.389378 279.73869,26.949025 C 277.80215,26.783899 275.65918,26.72546 273.26107,26.716877 C 269.85162,26.70467 265.92032,26.792697 261.33929,26.819004 V 21.985223 A 2.4210336,2.4210336 0 0 0 258.88206,19.530268 Z M 111.84523,20.377667 V 20.762179 A 2.8854262,2.8854262 0 0 1 110.25056,23.342663 L 100.50841,28.2138 A 2.8854262,2.8854262 0 0 1 98.346957,28.383773 C 95.931037,27.618624 93.412278,27.228044 90.878085,27.225741 C 77.141716,27.227133 66.068397,38.301207 66.068397,52.037909 C 66.068397,58.619615 68.681762,64.928874 73.335734,69.582851 C 77.989702,74.236817 84.298972,76.850188 90.880682,76.850188 C 97.462388,76.850188 103.77154,74.236817 108.42551,69.582851 C 113.07826,64.93009 115.69136,58.622956 115.69273,52.043106 C 115.68269,49.519231 115.28766,47.011588 114.52122,44.606859 A 2.8854262,2.8854262 0 0 1 114.68966,42.44044 L 119.57592,32.668031 A 2.8854262,2.8854262 0 0 1 122.15641,31.073358 H 122.54092 V 30.533172 L 112.38542,20.377667 Z M 181.41674,26.792642 A 2.4210336,2.4210336 0 0 0 179.03236,29.247597 V 80.084214 A 2.4210336,2.4210336 0 1 0 183.87395,80.084214 V 29.247597 A 2.4210336,2.4210336 0 0 0 181.41674,26.792642 Z M 221.39621,26.826806 C 214.01375,26.826806 206.93114,29.760479 201.71097,34.980667 C 196.49078,40.20085 193.55711,47.283449 193.55711,54.665905 C 193.55711,62.048367 196.49078,69.130961 201.71097,74.351151 C 206.93114,79.571334 214.01375,82.505007 221.39621,82.505007 C 228.77868,82.505007 235.86126,79.571334 241.08143,74.351151 C 246.30162,69.130961 249.2353,62.048367 249.2353,54.665905 C 249.2353,47.283449 246.30162,40.20085 241.08143,34.980667 C 235.86126,29.760479 228.77868,26.826806 221.39621,26.826806 Z M 90.442506,31.269575 A 1.3850046,1.3850046 0 1 1 90.500894,34.038708 C 84.834216,34.158264 79.557524,36.937216 76.253217,41.54233 A 1.3850046,1.3850046 0 1 1 74.002875,39.927687 C 77.814017,34.616218 83.906642,31.407463 90.442506,31.269575 Z M 221.39621,31.668389 C 227.49645,31.668389 233.34443,34.090641 237.65795,38.40417 C 241.97147,42.717699 244.39371,48.565657 244.39371,54.665905 C 244.39371,60.766152 241.97147,66.614113 237.65795,70.927643 C 233.34443,75.241172 227.49645,77.663424 221.39621,77.663424 C 215.29596,77.663424 209.448,75.241172 205.13448,70.927643 C 200.82094,66.614113 198.39869,60.766152 198.39869,54.665905 C 198.39869,48.565657 200.82094,42.717699 205.13448,38.40417 C 209.448,34.090641 215.29596,31.668389 221.39621,31.668389 Z M 95.886098,31.925597 A 1.3848661,1.3848661 0 0 1 95.886211,31.925597 A 1.3848661,1.3848661 0 0 1 96.257133,31.972761 A 1.3848661,1.3848661 0 0 1 97.236324,33.668852 A 1.3848661,1.3848661 0 0 1 95.540231,34.64816 A 1.3848661,1.3848661 0 0 1 94.560925,32.952069 A 1.3848661,1.3848661 0 0 1 95.886098,31.925597 Z M 108.66971,58.343665 A 1.3850046,1.3850046 0 0 1 109.9411,60.297198 C 107.5115,65.904162 102.73416,70.158371 96.884195,71.924446 C 91.034238,73.690511 84.700963,72.790503 79.574592,69.464645 A 1.3850046,1.3850046 0 1 1 81.082033,67.141139 C 85.526259,70.024446 91.012197,70.80399 96.083731,69.272924 C 101.15526,67.741857 105.29344,64.056899 107.39974,59.196024 A 1.3850046,1.3850046 0 0 1 108.66971,58.343665 Z" /></svg>
